HIERARCHY
ROOT hip
{
	OFFSET 0.000000 0.000000 0.000000 
	CHANNELS 6 Xposition Yposition Zposition Xrotation Zrotation Yrotation
	JOINT abdomen
	{
		OFFSET 0.000000 3.402643 0.000000 
		CHANNELS 3 Xrotation Zrotation Yrotation
		JOINT chest
		{
			OFFSET 0.000000 8.438565 -0.680529 
			CHANNELS 3 Xrotation Zrotation Yrotation
			JOINT neck
			{
				OFFSET 0.000000 10.207942 -0.272212 
				CHANNELS 3 Xrotation Zrotation Yrotation
				JOINT head
				{
					OFFSET 0.000000 3.130431 0.000000 
					CHANNELS 3 Xrotation Zrotation Yrotation
					End Site
					{
						OFFSET 0.000000 3.130435 0.000000 
					}
				}
			}
			JOINT lCollar
			{
				OFFSET 3.470700 6.669187 -0.816635 
				CHANNELS 3 Yrotation Zrotation Xrotation
				JOINT lShldr
				{
					OFFSET 3.198488 0.000000 0.000000 
					CHANNELS 3 Zrotation Yrotation Xrotation
					JOINT lForeArm
					{
						OFFSET 10.139888 0.000000 0.000000 
						CHANNELS 3 Yrotation Zrotation Xrotation
						JOINT lHand
						{
							OFFSET 8.370511 0.000000 0.000000 
							CHANNELS 3 Zrotation Yrotation Xrotation
							End Site
							{
								OFFSET 4.083176 0.000000 0.000000 
							}
						}
					}
				}
			}
			JOINT rCollar
			{
				OFFSET -3.470700 6.669187 -0.816635 
				CHANNELS 3 Yrotation Zrotation Xrotation
				JOINT rShldr
				{
					OFFSET -3.198488 0.000000 0.000000 
					CHANNELS 3 Zrotation Yrotation Xrotation
					JOINT rForeArm
					{
						OFFSET -10.139888 0.000000 0.000000 
						CHANNELS 3 Yrotation Zrotation Xrotation
						JOINT rHand
						{
							OFFSET -8.370511 0.000000 0.000000 
							CHANNELS 3 Zrotation Yrotation Xrotation
							End Site
							{
								OFFSET -4.083176 0.000000 0.000000 
							}
						}
					}
				}
			}
		}
	}
	JOINT lThigh
	{
		OFFSET 5.308129 -1.633274 1.361059 
		CHANNELS 3 Xrotation Zrotation Yrotation
		JOINT lShin
		{
			OFFSET -2.041588 -20.007561 0.000000 
			CHANNELS 3 Xrotation Zrotation Yrotation
			JOINT lFoot
			{
				OFFSET 0.000000 -19.190928 -1.224953 
				CHANNELS 3 Xrotation Yrotation Zrotation
				End Site
				{
					OFFSET 0.000000 -2.449906 4.627600 
				}
			}
		}
	}
	JOINT rThigh
	{
		OFFSET -5.308129 -1.633274 1.361059 
		CHANNELS 3 Xrotation Zrotation Yrotation
		JOINT rShin
		{
			OFFSET 2.041588 -20.007561 0.000000 
			CHANNELS 3 Xrotation Zrotation Yrotation
			JOINT rFoot
			{
				OFFSET 0.000000 -19.190928 -1.224953 
				CHANNELS 3 Xrotation Yrotation Zrotation
				End Site
				{
					OFFSET 0.000000 -2.449906 4.627600 
				}
			}
		}
	}
}
MOTION
Frames: 17
Frame Time: 0.016667
0.258163 43.006172 1.156647 -0.734076 3.847340 -7.021800 -21.116501 -0.839759 2.878530 17.439800 1.842970 1.198540 23.195101 -6.082240 2.206790 16.661200 1.813130 2.403010 2.000000 -2.000000 0.000000 93.779800 176.264008 6.231990 22.949499 -0.340743 0.053369 0.044894 -0.000610 -133.649994 -2.000000 2.000000 0.000000 -90.761002 -173.636002 2.903700 -30.303101 0.332885 0.068986 -0.056781 0.027538 -146.804993 7.551280 -6.447259 1.835833 0.768283 4.197393 -0.047617 -13.157680 14.338362 3.606211 2.303940 -5.971829 -4.055571 10.204288 -6.550261 -0.507594 -16.988848 -2.548916 0.066334 
0.265462 43.010681 1.162671 -0.851490 3.808170 -7.038850 -21.096399 -0.844503 2.921560 17.371401 1.813600 1.217500 23.178101 -6.094470 2.165070 16.641500 1.794250 2.388360 2.000000 -2.000000 0.000000 93.828598 176.274994 5.899980 23.027599 -0.340670 0.053540 0.044871 -0.001020 -133.796997 -2.000000 2.000000 0.000000 -90.682899 -173.606995 2.620420 -30.244499 0.332955 0.068866 -0.056697 0.027053 -146.628998 7.758565 -6.416856 1.843075 0.630803 4.199842 -0.076756 -12.953677 14.349611 3.549401 2.324311 -5.877390 -3.939620 10.414825 -6.694170 -0.522716 -17.114166 -2.603615 0.143302 
0.269815 43.002445 1.164568 -0.851265 3.573830 -7.054920 -21.065901 -0.829978 2.988210 17.391300 1.647870 1.256580 23.208700 -6.141910 1.982390 16.670000 1.708230 2.301660 2.000000 -2.000000 0.000000 94.072899 176.292999 6.398070 23.086201 -0.340616 0.053669 0.044831 0.007981 -134.070007 -2.000000 2.000000 0.000000 -90.497299 -173.636993 2.405650 -30.146799 0.333073 0.068664 -0.056565 0.026271 -146.345993 7.822255 -6.158834 1.820552 0.611086 4.193132 -0.066842 -13.145248 14.332932 3.613062 2.454621 -5.653913 -3.956880 10.234020 -6.575800 -0.500168 -17.047729 -2.560941 0.091427 
0.274281 43.009521 1.164472 -0.870928 3.671450 -7.067380 -21.055799 -0.856272 3.029390 17.352100 1.686810 1.272800 23.186300 -6.045710 1.996310 16.689699 1.727110 2.306530 2.000000 -2.000000 0.000000 94.131599 176.223999 6.847130 23.203400 -0.340506 0.053926 0.044866 0.008664 -133.826004 -2.000000 2.000000 0.000000 -90.409401 -173.735001 2.181290 -30.068701 0.333166 0.068503 -0.056494 0.025839 -146.188995 7.786691 -6.239639 2.049283 0.699893 4.199220 -0.057326 -12.920351 14.184827 3.514074 2.495163 -5.702244 -3.684105 10.186697 -6.595140 -0.501578 -17.135550 -2.801113 0.031830 
0.294692 43.013508 1.169612 -0.959063 3.729950 -7.073980 -21.026800 -0.869154 3.022850 17.332600 1.686780 1.272230 23.173300 -5.999630 2.036390 16.680300 1.765310 2.324570 2.000000 -2.000000 0.000000 94.092400 176.272995 6.661690 23.076401 -0.340625 0.053647 0.044924 -0.000091 -133.464996 -2.000000 2.000000 0.000000 -90.468002 -173.675995 2.161610 -30.029600 0.333213 0.068422 -0.056538 0.026109 -146.287003 7.872077 -6.357623 1.855673 0.669911 4.203883 -0.067077 -13.044727 14.272887 3.554395 2.535203 -5.774573 -3.590978 10.293140 -6.647858 -0.517388 -17.260452 -2.837919 0.052025 
0.299239 43.010162 1.162082 -0.939418 3.661620 -6.973940 -21.027700 -0.838433 2.937830 17.322701 1.755020 1.229020 23.148701 -5.934380 2.102990 16.661200 1.813130 2.354190 2.000000 -2.000000 0.000000 94.043602 176.292999 6.661740 23.115499 -0.340588 0.053733 0.044938 0.000127 -133.386993 -2.000000 2.000000 0.000000 -90.565697 -173.705002 2.317930 -30.039400 0.333201 0.068442 -0.056592 0.026433 -146.404007 7.802855 -6.226763 2.097650 0.767743 4.197247 -0.057362 -12.968020 14.053393 3.493825 2.522758 -5.587831 -3.387898 10.298122 -6.730526 -0.522907 -17.233463 -3.315580 -0.005721 
0.302605 43.008366 1.163653 -0.880685 3.642150 -7.028490 -21.056499 -0.779994 2.926790 17.293200 1.842710 1.232890 23.222601 -5.842300 2.148230 16.710600 1.869840 2.378370 2.000000 -2.000000 0.000000 93.985001 176.263000 6.671440 23.086201 -0.340616 0.053669 0.044944 0.000236 -133.348007 -2.000000 2.000000 0.000000 -90.614502 -173.714996 2.239830 -29.971001 0.333283 0.068301 -0.056565 0.026271 -146.345993 7.804043 -6.209554 2.099916 0.669178 4.194114 -0.066903 -12.961215 14.039431 3.509062 2.460392 -5.666752 -3.592610 10.327965 -6.629807 -0.516130 -17.203976 -2.959925 0.018159 
0.304873 43.009007 1.166890 -0.900188 3.573780 -7.048200 -21.027000 -0.734740 2.908430 17.322500 1.881770 1.231630 23.236601 -5.949080 2.110500 16.710100 1.822200 2.357880 2.000000 -2.000000 0.000000 93.985100 176.320999 6.905940 23.056900 -0.340643 0.053605 0.044908 -0.000364 -133.561996 -2.000000 2.000000 0.000000 -90.653603 -173.714996 2.269130 -30.000299 0.333248 0.068362 -0.056601 0.026487 -146.423996 7.824244 -6.129597 2.166967 0.680045 4.202726 -0.047530 -12.966988 13.996497 3.486097 2.534335 -5.535619 -3.254768 10.245506 -6.576027 -0.501328 -17.260321 -3.300641 -0.098022 
0.313306 43.013508 1.164953 -0.821885 3.544560 -7.042910 -21.035900 -0.726627 2.957930 17.342100 1.842800 1.253990 23.352200 -6.015910 1.989760 16.778000 1.764420 2.308040 2.000000 -2.000000 0.000000 94.033997 176.389999 7.013510 23.076401 -0.340625 0.053647 0.044897 -0.000555 -133.630997 -2.000000 2.000000 0.000000 -90.614502 -173.735001 2.259420 -30.078400 0.333154 0.068523 -0.056692 0.027026 -146.619003 7.703154 -6.089056 2.256730 0.776839 4.195567 -0.057307 -12.943873 14.000472 3.496702 2.456283 -5.525270 -3.235860 10.148942 -6.527655 -0.505656 -17.250818 -3.227436 -0.100796 
0.317659 43.015049 1.170287 -0.910091 3.690940 -7.089720 -20.987400 -0.757930 2.957910 17.361500 1.901340 1.251360 23.336201 -6.139060 1.975770 16.758101 1.726500 2.298830 2.000000 -2.000000 0.000000 93.994904 176.341003 6.915750 23.193600 -0.340515 0.053905 0.044883 -0.000801 -133.718994 -2.000000 2.000000 0.000000 -90.673103 -173.753998 2.396180 -30.058901 0.333178 0.068483 -0.056738 0.027296 -146.716995 7.738565 -6.251976 2.358108 0.883782 4.204758 -0.037948 -13.015220 13.897697 3.496050 2.463235 -5.714994 -3.410120 10.318706 -6.626091 -0.515620 -17.217106 -3.070650 -0.022738 
0.324600 43.012989 1.179439 -0.841553 3.651950 -7.094510 -21.035299 -0.731159 3.001520 17.361601 1.881840 1.271980 23.362900 -6.033630 1.981570 16.758400 1.764600 2.297680 2.000000 -2.000000 0.000000 94.073097 176.330002 7.237990 23.164301 -0.340542 0.053840 0.044845 0.008254 -133.973007 -2.000000 2.000000 0.000000 -90.575401 -173.667007 2.210410 -30.078400 0.333154 0.068523 -0.056601 0.026487 -146.423996 7.685436 -6.231333 2.309168 0.845410 4.202440 -0.047708 -13.046945 13.889517 3.476233 2.473606 -5.722706 -3.380960 10.200442 -6.519790 -0.505772 -17.194384 -3.134260 -0.101847 
0.318005 43.001804 1.184600 -0.900122 3.505430 -7.135020 -21.025000 -0.678840 3.001890 17.341999 1.881800 1.281100 23.288401 -5.917800 2.045680 16.710199 1.831730 2.330730 2.000000 -2.000000 0.000000 94.209900 176.192993 7.638080 23.369400 -0.340349 0.054290 0.044783 0.006943 -134.440994 -2.000000 2.000000 0.000000 -90.555901 -173.638000 2.083390 -29.990601 0.333259 0.068342 -0.056565 0.026271 -146.345993 7.793982 -6.059346 2.297754 0.777484 4.205378 -0.057466 -13.083879 13.916603 3.504671 2.516896 -5.554624 -3.217185 10.242927 -6.453951 -0.521007 -17.251358 -3.141632 -0.129990 
0.312319 43.008366 1.176927 -0.890413 3.583550 -7.096570 -21.015400 -0.715407 3.015630 17.332199 1.920780 1.278590 23.194201 -5.958550 1.995180 16.661100 1.803600 2.303220 2.000000 -2.000000 0.000000 94.161003 176.251999 7.315940 23.379200 -0.340340 0.054311 0.044797 0.007271 -134.324005 -2.000000 2.000000 0.000000 -90.555901 -173.666000 2.444790 -30.185900 0.333026 0.068745 -0.056729 0.027242 -146.697006 7.722993 -6.117816 2.397773 0.922829 4.196092 -0.047701 -13.064321 13.779247 3.473695 2.423852 -5.582341 -3.172791 10.375650 -6.537515 -0.530012 -17.293571 -3.340310 -0.110145 
0.316742 43.009262 1.178544 -0.929552 3.583510 -7.118540 -21.005699 -0.691587 2.995710 17.322300 1.950020 1.276610 23.187300 -6.148510 2.018490 16.650600 1.727460 2.315120 2.000000 -2.000000 0.000000 94.121902 176.173996 7.315770 23.447500 -0.340275 0.054461 0.044790 0.007107 -134.382996 -2.000000 2.000000 0.000000 -90.555901 -173.656998 2.259220 -30.107700 0.333119 0.068584 -0.056692 0.027026 -146.619003 7.815434 -6.146053 2.303440 0.816479 4.208163 -0.047758 -13.132701 13.898499 3.502084 2.498706 -5.573483 -3.189514 10.328262 -6.575248 -0.521910 -17.328838 -3.371923 -0.107175 
0.311548 43.006432 1.176894 -0.910051 3.651880 -7.089100 -21.006300 -0.744019 2.995040 17.322399 1.940270 1.267400 23.293900 -6.152950 2.038200 16.709200 1.726940 2.336420 2.000000 -2.000000 0.000000 94.170700 176.134995 7.149670 23.525700 -0.340201 0.054632 0.044773 0.006725 -134.518997 -2.000000 2.000000 0.000000 -90.516800 -173.598007 2.268830 -30.176100 0.333038 0.068725 -0.056651 0.026783 -146.531006 7.737015 -6.190611 2.464394 0.873606 4.196404 -0.057391 -12.992290 13.796350 3.462505 2.448411 -5.722523 -3.361328 10.394990 -6.505731 -0.518293 -17.343765 -3.065055 -0.078709 
0.311077 43.000648 1.175160 -0.919719 3.534700 -7.068320 -20.996099 -0.704233 2.989910 17.322399 1.930520 1.267950 23.191799 -6.065400 2.082610 16.651100 1.784630 2.347470 2.000000 -2.000000 0.000000 94.141403 176.173996 7.237650 23.545200 -0.340182 0.054675 0.044753 0.006206 -134.705002 -2.000000 2.000000 0.000000 -90.565697 -173.666000 2.249480 -30.107700 0.333119 0.068584 -0.056678 0.026945 -146.589996 7.755641 -6.048804 2.431621 0.874941 4.206352 -0.047807 -13.073315 13.783935 3.477654 2.458721 -5.570466 -3.397181 10.387699 -6.518224 -0.528569 -17.288670 -3.109961 -0.068995 
0.308572 43.003220 1.170765 -0.890509 3.681200 -7.019950 -21.035500 -0.725469 2.988870 17.283100 2.008440 1.262170 23.194401 -6.144770 2.066600 16.631300 1.756220 2.330700 2.000000 -2.000000 0.000000 94.102303 176.106003 7.217960 23.603800 -0.340126 0.054803 0.044751 0.006178 -134.714996 -2.000000 2.000000 0.000000 -90.634003 -173.617004 2.327480 -30.136999 0.333084 0.068644 -0.056674 0.026918 -146.580002 7.713400 -6.211315 2.406304 0.826113 4.206279 -0.047740 -13.015368 13.759311 3.456524 2.379148 -5.723912 -3.441767 10.482182 -6.551146 -0.523385 -17.290754 -3.097290 -0.061813 
